<svg viewBox="1 0 511.99927 511" xmlns="http://www.w3.org/2000/svg"><path d="m499.375 57.554688h-208.148438l-6.796874-45.1875c-.371094-2.46875-2.492188-4.292969-4.988282-4.292969h-111.753906c-2.492188 0-4.613281 1.824219-4.984375 4.292969l-6.796875 45.1875h-13.011719l-6.796875-45.1875c-.371094-2.46875-2.492187-4.292969-4.984375-4.292969h-111.753906c-2.496094 0-4.617187 1.824219-4.988281 4.292969l-6.796875 45.1875h.003906v441.304687c0 2.796875 2.261719 5.050781 5.046875 5.050781h486.75c2.785156 0 5.046875-2.253906 5.046875-5.050781v-436.257813c.003906-2.785156-2.257813-5.046874-5.046875-5.046874zm0 0" fill="#4172cc"/><path d="m504.425781 62.601562v436.257813c0 2.796875-2.261719 5.050781-5.050781 5.050781h-486.75c-2.785156 0-5.046875-2.253906-5.046875-5.050781v-441.304687h491.796875c2.789062 0 5.050781 2.261718 5.050781 5.046874zm0 0" fill="#bebebe"/><path d="m142.898438 57.554688h-135.320313l6.796875-45.191407c.371094-2.464843 2.492188-4.292969 4.988281-4.292969h111.75c2.492188 0 4.613281 1.828126 4.988281 4.292969zm0 0" fill="#4172cc"/><path d="m504.425781 62.601562v436.257813c0 2.796875-2.261719 5.050781-5.050781 5.050781h-458.726562c-2.785157 0-5.046876-2.253906-5.046876-5.050781v-441.304687h463.773438c2.789062 0 5.050781 2.261718 5.050781 5.046874zm0 0" fill="#ebebf0"/><path d="m142.898438 57.554688h-107.296876l6.796876-45.191407c.371093-2.464843 2.492187-4.292969 4.988281-4.292969h83.726562c2.492188 0 4.613281 1.828126 4.988281 4.292969zm0 0" fill="#6990d7"/><path d="m310.703125 210.757812c0 21.300782-18.164063 31.964844-42.535156 34.546876-4.007813.425781-8.179688.628906-12.460938.628906-30.367187 0-54.984375-10.371094-54.984375-35.175782 0-24.800781 24.617188-54.640624 54.984375-54.640624 4.28125 0 8.453125.59375 12.460938 1.683593 24.371093 6.636719 42.535156 31.660157 42.535156 52.957031zm0 0" fill="#464646"/><path d="m310.703125 210.757812c0 21.300782-18.164063 31.964844-42.535156 34.546876-24.375-2.582032-42.542969-13.238282-42.542969-34.546876 0-21.308593 18.167969-46.332031 42.542969-52.957031 24.371093 6.636719 42.535156 31.660157 42.535156 52.957031zm0 0" fill="#5a5a5a"/><path d="m381.089844 351.269531c0 48.191407-34.253906 103.582031-82.148438 125.625-26.703125 12.300781-38.074218-52.894531-41.253906-82.191406-.273438-2.484375-3.886719-2.484375-4.152344 0-2.078125 19.097656-7.632812 53.441406-18.640625 71.640625-5.886719 9.722656-13.320312 14.832031-22.621093 10.550781-47.886719-22.042969-82.152344-77.433593-82.152344-125.625 0-51.722656 35.882812-93.550781 83.191406-104.09375 18.007812-4.019531 41.617188-5.171875 62.875-3.261719 7.675781.683594 15.035156 1.777344 21.722656 3.261719 47.300782 10.542969 83.179688 52.371094 83.179688 104.09375zm0 0" fill="#d63030"/><path d="m381.089844 351.269531c0 48.191407-34.253906 103.582031-82.148438 125.625-26.703125 12.300781-38.074218-52.894531-41.253906-82.191406-.273438-2.484375-3.886719-2.484375-4.152344 0-2.078125 19.097656-7.632812 53.441406-18.640625 71.640625-38-26.195312-63.699219-73.335938-63.699219-115.074219 0-51.722656 35.878907-93.550781 83.179688-104.09375 6.644531-1.476562 14.046875-2.578125 21.8125-3.261719 7.675781.683594 15.035156 1.777344 21.722656 3.261719 47.300782 10.542969 83.179688 52.371094 83.179688 104.09375zm0 0" fill="#f44545"/><g fill="#464646"><path d="m237.574219 312.445312c0 15.714844-12.742188 28.457032-28.457031 28.457032-15.71875 0-28.457032-12.742188-28.457032-28.457032 0-15.714843 12.738282-28.457031 28.457032-28.457031 15.714843 0 28.457031 12.742188 28.457031 28.457031zm0 0"/><path d="m205.871094 405.066406c0 15.714844-12.738282 28.453125-28.457032 28.453125-15.714843 0-28.457031-12.738281-28.457031-28.453125 0-15.71875 12.742188-28.457031 28.457031-28.457031 15.71875 0 28.457032 12.738281 28.457032 28.457031zm0 0"/><path d="m333.144531 312.445312c0 15.714844-12.738281 28.457032-28.453125 28.457032-15.71875 0-28.457031-12.742188-28.457031-28.457032 0-15.714843 12.738281-28.457031 28.457031-28.457031 15.714844 0 28.453125 12.742188 28.453125 28.457031zm0 0"/><path d="m364.847656 405.066406c0 15.714844-12.742187 28.453125-28.457031 28.453125s-28.457031-12.738281-28.457031-28.453125c0-15.71875 12.742187-28.457031 28.457031-28.457031s28.457031 12.738281 28.457031 28.457031zm0 0"/></g><path d="m291.226562 57.554688h-135.320312l6.796875-45.191407c.371094-2.464843 2.492187-4.292969 4.988281-4.292969h111.75c2.492188 0 4.613282 1.828126 4.988282 4.292969zm0 0" fill="#4172cc"/><path d="m291.226562 57.554688h-107.296874l6.796874-45.191407c.371094-2.464843 2.492188-4.292969 4.988282-4.292969h83.726562c2.492188 0 4.613282 1.828126 4.988282 4.292969zm0 0" fill="#6990d7"/><path d="m504.425781 62.601562v56.5625h-496.847656v-61.609374h491.796875c2.789062 0 5.050781 2.261718 5.050781 5.046874zm0 0" fill="#6990d7"/><path d="m504.425781 62.601562v56.5625h-468.824219v-61.609374h463.773438c2.789062 0 5.050781 2.261718 5.050781 5.046874zm0 0" fill="#91aee2"/><path d="m499.378906 49.980469h-201.632812l-5.828125-38.738281c-.9375-6.226563-6.183594-10.742188-12.476563-10.742188h-111.753906c-6.292969 0-11.539062 4.515625-12.476562 10.742188l-5.8125 38.644531-5.8125-38.644531c-.933594-6.226563-6.183594-10.742188-12.476563-10.742188h-111.75c-6.292969 0-11.542969 4.519531-12.476563 10.742188-7.042968 46.867187-6.882812 45.5-6.882812 46.3125v441.308593c0 6.960938 5.664062 12.625 12.625 12.625h486.75c6.960938 0 12.625-5.664062 12.625-12.625v-436.257812c0-6.960938-5.664062-12.625-12.621094-12.625zm-329.511718-34.332031h107.394531l5.164062 34.332031h-117.722656zm-148.332032 0h107.398438l5.164062 34.332031h-117.726562zm475.316406 480.691406h-481.703124v-369.601563h481.703124zm0-384.75h-481.703124v-46.460938h481.703124zm0 0"/><path d="m365.738281 95.425781h71.023438c4.183593 0 7.574219-3.390625 7.574219-7.574219 0-4.183593-3.390626-7.574218-7.574219-7.574218h-71.023438c-4.183593 0-7.574219 3.390625-7.574219 7.574218 0 4.183594 3.390626 7.574219 7.574219 7.574219zm0 0"/><path d="m33.496094 95.425781h301.945312c4.183594 0 7.574219-3.390625 7.574219-7.574219 0-4.183593-3.390625-7.574218-7.574219-7.574218h-301.945312c-4.183594 0-7.574219 3.390625-7.574219 7.574218 0 4.183594 3.390625 7.574219 7.574219 7.574219zm0 0"/><path d="m478.503906 87.851562c0 5.578126-4.519531 10.097657-10.097656 10.097657s-10.097656-4.519531-10.097656-10.097657c0-5.578124 4.519531-10.097656 10.097656-10.097656s10.097656 4.519532 10.097656 10.097656zm0 0"/><path d="m209.113281 348.472656c19.875 0 36.03125-16.15625 36.03125-36.03125 0-19.863281-16.15625-36.03125-36.03125-36.03125-19.863281 0-36.03125 16.167969-36.03125 36.03125 0 19.875 16.167969 36.03125 36.03125 36.03125zm0-56.914062c11.523438 0 20.882813 9.371094 20.882813 20.882812 0 11.523438-9.359375 20.882813-20.882813 20.882813-11.511719 0-20.882812-9.359375-20.882812-20.882813 0-11.511718 9.371093-20.882812 20.882812-20.882812zm0 0"/><path d="m304.691406 348.472656c23.023438 0 40.347656-21.484375 35.101563-44.179687-.941407-4.074219-5.007813-6.613281-9.085938-5.671875-4.074219.941406-6.613281 5.011718-5.671875 9.085937 3.039063 13.144531-6.980468 25.621094-20.34375 25.621094-11.515625 0-20.882812-9.367187-20.882812-20.882813 0-13.855468 13.3125-23.878906 26.621094-20.085937 4.023437 1.148437 8.214843-1.183594 9.359374-5.207031 1.148438-4.023438-1.183593-8.214844-5.207031-9.363282-22.957031-6.542968-45.921875 10.757813-45.921875 34.65625 0 19.867188 16.160156 36.027344 36.03125 36.027344zm0 0"/><path d="m62.421875 358.84375h60.378906c.484375 2.808594.503907 22.667969 13.46875 50.199219h-20.070312c-10.925781 0-21.101563 5.875-26.5625 15.339843l-17.933594 31.078126c-2.089844 3.625-.847656 8.253906 2.777344 10.347656 3.640625 2.101562 8.265625.824218 10.34375-2.777344l17.929687-31.078125c2.765625-4.789063 7.917969-7.765625 13.445313-7.765625h28.210937c1.820313 2.25 22.675782 40.25 64.691406 59.59375 6.847657 3.140625 13.753907 2.949219 19.976563-.585938 9.59375-5.429687 17.195313-18.589843 23.234375-40.230468 1.242188-4.453125 2.335938-8.96875 3.292969-13.382813.960937 4.414063 2.050781 8.929688 3.292969 13.382813 5.082031 18.214844 14.65625 43.039062 33.585937 43.039062 3.171875 0 6.402344-.746094 9.625-2.222656 41.894531-19.300781 62.773437-57.117188 64.804687-59.59375h28.886719c5.527344 0 10.679688 2.976562 13.445313 7.765625l17.929687 31.078125c1.402344 2.429688 3.949219 3.789062 6.566407 3.789062 5.746093 0 9.492187-6.269531 6.554687-11.359374l-17.933594-31.078126c-5.460937-9.464843-15.636719-15.34375-26.5625-15.34375h-20.859375c12.636719-26.832031 12.84375-46.554687 13.46875-50.195312h61.167969c4.183594 0 7.574219-3.390625 7.574219-7.574219 0-4.183593-3.390625-7.574219-7.574219-7.574219h-61.15625c-1.050781-16.359374-5.484375-31.839843-12.695313-45.675781h20.074219c10.925781 0 21.101563-5.878906 26.5625-15.34375l17.933594-31.078125c2.089844-3.621094.847656-8.253906-2.777344-10.34375-3.621093-2.09375-8.253906-.847656-10.34375 2.777344l-17.929687 31.078125c-2.765625 4.789063-7.917969 7.761719-13.445313 7.761719h-29.566406c-15.027344-20.246094-36.757813-35.363282-62.601563-42.097656 25.976563-19.902344 14.402344-58.75-11.390624-79.042969 3.054687-5.070313 8.191406-8.417969 13.179687-9.25 4.101563-.6875 6.867187-4.554688 6.199219-8.664063-.625-3.929687-4.277344-7.28125-9.894532-6.039062-9.535156 2.070312-17.511718 8.046875-22.367187 16.035156-16.035156-7.382812-33.691406-7-49.546875 1.089844-8.757812-15.617188-23.925781-17.226563-24.234375-17.367188-4.101563-.648437-7.976563 2.148438-8.65625 6.25-.675781 4.101563 2.082031 7.988282 6.183594 8.695313 5.527343.921875 11.15625 4.871093 14.074219 10.886719-24.269532 20.40625-34.726563 57.953124-9.441407 77.363281-41.988281 10.882812-61.0625 40.511719-62.761719 42.144531h-28.777343c-5.527344 0-10.679688-2.976562-13.445313-7.765625l-17.929687-31.078125c-2.089844-3.625-6.722657-4.863281-10.34375-2.777344-3.625 2.09375-4.867188 6.722656-2.777344 10.347656l17.933594 31.078126c5.460937 9.464843 15.636719 15.339843 26.5625 15.339843h19.285156c-7.210937 13.835938-11.644531 29.316407-12.695313 45.675781h-60.367187c-4.183594 0-7.574219 3.390626-7.574219 7.574219 0 4.183594 3.390625 7.574219 7.574219 7.574219zm293.402344 53.824219c-1.140625 2.011719-2.34375 4-3.585938 5.96875-12.523437 14.640625-36.726562 5.847656-36.726562-13.570313 0-11.515625 9.359375-20.886718 20.875-20.886718 14.8125 0 24.804687 15.042968 19.4375 28.488281zm-66.984375-233.546875c8.757812 9.136718 14.289062 20.984375 14.289062 31.636718 0 21.8125-25.691406 27.601563-47.421875 27.601563-21.785156 0-47.410156-5.8125-47.410156-27.601563 0-32.230468 45.675781-68.113281 80.542969-31.636718zm-134.117188 116.234375c.355469-.417969.664063-.867188.921875-1.351563 19.03125-27.082031 45.890625-39.191406 78.363281-42.40625 13.234376 2.546875 30.0625 2.550782 43.320313.007813 6.6875.667969 13.089844 1.65625 18.925781 2.960937 45.492188 10.140625 77.261719 49.90625 77.261719 96.703125 0 11.683594-2.148437 23.730469-6.078125 35.527344-6.269531-10.625-17.84375-17.765625-31.050781-17.765625-19.867188 0-36.023438 16.167969-36.023438 36.035156 0 19.367188 15.371094 35.230469 34.558594 36-11.433594 12.238282-24.773437 22.335938-39.144531 28.953125-2.996094 1.382813-4.734375.816407-6.167969 0-10.269531-5.816406-20.078125-36.417969-24.398437-76.132812-.535157-4.917969-4.664063-8.625-9.605469-8.625-4.9375 0-9.066407 3.707031-9.601563 8.625-4.324218 39.714843-14.128906 70.316406-24.386718 76.132812-1.445313.816407-3.183594 1.371094-6.171876 0-14.875-6.851562-28.242187-17.261719-39.148437-28.960937 30.269531.964844 47.914063-33.613282 29.960937-57.601563-2.507812-3.347656-7.253906-4.03125-10.601562-1.523437-3.351562 2.503906-4.03125 7.253906-1.527344 10.601562 10.308594 13.773438.355469 33.421875-16.707031 33.421875-11.3125 0-20.898437-9.238281-20.898437-20.886719 0-10.167968 7.539062-19.246093 18.054687-20.699218 4.144531-.574219 7.039063-4.398438 6.464844-8.539063-.574219-4.144531-4.394531-7.046875-8.539063-6.464843-12.539062 1.730468-22.644531 9.757812-27.683594 20.457031-.148437-1.269531-21.277343-48.527344 9.902344-94.46875zm0 0"/></svg>